PathFileType	4	(X/Y/Z)	E:\3-PhD\Data\MocapData\ElaboratedData\012\pre\dynamicElaborations\Run_baselineA1\Run_baselineA1.trc
DataRate	CameraRate	NumFrames	NumMarkers	Units	OrigDataRate	OrigDataStartFrame	OrigNumFrames
200	200	4	56	mm	200	8.290000e+02	106
Frame#	Time	FHD			LBHD			RBHD			C7			T10			CLAV			LSHO			LUUPA			LMUPA			LDUPA			LLEP			LMEP			LRAD			LUL			LRFIN			RSHO			RUPA1			RMUPA			RDUPA			RLEP			RMEP			RRAD			RUL			RUFIN			LASI			RASI			USACR			LSACR			RSACR			LTHI1			LTHI2			LTHI3			LTHI4			LLFC			LTIB1			LTIB2			LTIB3			LTIB4			LHEE			LMT1			LMT5			LMT2			RTHI			RTHI2			RTHI3			RTHI4			RLFC			RTIB1			RTIB2			RTIB3			RTIB4			RLMAL			RHEE			RMT1			RMT2			RMT5		
		X1	Y1	Z1	X2	Y2	Z2	X3	Y3	Z3	X4	Y4	Z4	X5	Y5	Z5	X6	Y6	Z6	X7	Y7	Z7	X8	Y8	Z8	X9	Y9	Z9	X10	Y10	Z10	X11	Y11	Z11	X12	Y12	Z12	X13	Y13	Z13	X14	Y14	Z14	X15	Y15	Z15	X16	Y16	Z16	X17	Y17	Z17	X18	Y18	Z18	X19	Y19	Z19	X20	Y20	Z20	X21	Y21	Z21	X22	Y22	Z22	X23	Y23	Z23	X24	Y24	Z24	X25	Y25	Z25	X26	Y26	Z26	X27	Y27	Z27	X28	Y28	Z28	X29	Y29	Z29	X30	Y30	Z30	X31	Y31	Z31	X32	Y32	Z32	X33	Y33	Z33	X34	Y34	Z34	X35	Y35	Z35	X36	Y36	Z36	X37	Y37	Z37	X38	Y38	Z38	X39	Y39	Z39	X40	Y40	Z40	X41	Y41	Z41	X42	Y42	Z42	X43	Y43	Z43	X44	Y44	Z44	X45	Y45	Z45	X46	Y46	Z46	X47	Y47	Z47	X48	Y48	Z48	X49	Y49	Z49	X50	Y50	Z50	X51	Y51	Z51	X52	Y52	Z52	X53	Y53	Z53	X54	Y54	Z54	X55	Y55	Z55	X56	Y56	Z56	
868	4.335000	-2140.427677	1713.210728	410.580049	-2308.022371	1705.382574	326.705219	-2277.623349	1692.939048	475.817676	-2361.601475	1537.872504	400.772047	-2532.803443	1234.226169	336.425963	-2246.119756	1414.318179	368.536481	-2269.354788	1554.517948	240.458070	-2411.619744	1441.711356	85.218245	-2393.311015	1396.697660	72.665564	-2451.663494	1393.100904	55.342469	-2488.458299	1319.105418	15.571797	-2531.353797	1304.772858	91.474094	-2421.076806	1049.159988	40.994495	-2455.770341	1052.964422	-28.209682	-2399.077310	966.618963	22.644663	-2258.542359	1457.210826	546.748351	-2369.889957	1244.381934	607.719630	-2332.834478	1215.719290	591.604482	-2374.714979	1175.592017	596.759886	-2377.099032	1103.843782	583.167988	-2442.340784	1106.002220	510.769000	-2142.892980	1095.949616	429.260770	-2130.535349	1024.114864	458.979050	-2059.239110	1087.157904	407.495241	-2454.039050	970.376670	219.856853	-2496.058632	974.404770	451.002015	-2601.626475	1119.577580	311.258028	-2619.316628	1094.241295	280.083888	-2625.780730	1095.713715	336.737302	-2443.756381	773.062881	144.801686	-2366.203226	737.699902	162.469496	-2336.603771	763.779301	190.800381	-2355.840168	679.601037	166.655956	-2293.988263	545.750221	202.049845	-2433.241674	430.191739	257.974197	-2472.524847	434.943297	182.166958	-2469.116186	406.378173	217.964910	-2549.730210	382.533035	236.543769	-2758.241595	396.734424	221.091998	-2666.744845	206.681246	249.060772	-2668.674295	230.551252	149.373249	-2645.833588	202.508824	198.268879	-2644.332639	691.729940	474.940872	-2613.547033	631.395562	479.981046	-2582.444530	624.900886	477.492081	-2649.346808	560.385113	456.800752	-2670.923543	438.964021	438.817107	-2705.590148	313.547109	388.271077	-2808.019545	294.769045	421.059878	-2777.977876	264.050518	402.685819	-2799.204516	224.754316	366.328446	-2953.059770	129.051299	356.165832	-3016.772198	97.000163	304.511925	-2793.623588	64.708740	303.855774	-2798.588846	62.940326	346.779572	-2844.258951	48.509055	397.254881	
869	4.340000	-2113.147070	1715.751793	408.624841	-2280.752836	1707.984661	324.839118	-2250.208971	1695.207945	473.991137	-2333.830037	1539.588349	399.861376	-2503.790685	1234.775432	338.241198	-2218.010277	1417.300851	365.415852	-2243.125940	1558.637648	239.008517	-2388.659425	1449.488492	84.958400	-2370.619273	1404.829078	70.607863	-2429.447860	1401.878411	54.462225	-2467.083128	1328.886336	13.872291	-2508.704254	1313.180759	90.319892	-2400.962888	1058.186558	32.625108	-2437.067104	1063.493440	-35.856990	-2380.351950	975.579711	13.082461	-2227.143349	1460.857490	543.201761	-2333.320675	1246.358219	606.712865	-2296.161243	1218.423422	589.864661	-2337.268307	1177.554391	595.893373	-2338.443179	1105.715546	582.022167	-2406.112728	1107.820931	510.584637	-2107.932832	1109.153351	422.399894	-2091.977972	1037.653678	451.008969	-2024.589343	1104.173463	398.524594	-2424.100760	973.941149	218.510578	-2465.525623	972.133806	449.939684	-2572.073114	1119.869145	313.059971	-2590.229837	1094.912808	281.573492	-2595.966914	1095.663267	338.445541	-2409.229284	780.140793	145.332014	-2330.692167	747.421328	163.923062	-2302.195900	774.755229	192.142151	-2318.474907	689.701680	168.526540	-2251.477060	558.010315	204.289426	-2384.731184	434.221686	258.660118	-2422.727885	435.964169	182.143746	-2418.242478	407.791543	218.266719	-2497.234097	379.692257	236.074247	-2706.990205	379.568106	216.427440	-2602.427518	196.835583	246.778238	-2604.235865	220.279532	146.818626	-2580.222016	193.958629	196.153034	-2624.086658	693.083090	473.408654	-2596.225532	631.548946	477.689122	-2565.247338	623.673187	475.179507	-2635.284246	562.217720	455.268366	-2662.164603	441.532355	437.526548	-2699.148301	316.568668	388.115479	-2801.721470	299.447050	421.421488	-2772.104197	268.135126	403.203748	-2793.940418	228.742319	367.317249	-2949.549268	134.908544	358.575097	-3013.824629	105.222902	306.788546	-2793.147079	63.967121	304.249780	-2797.855961	61.781310	347.023313	-2843.799438	48.586039	397.648172	
870	4.345000	-2085.773528	1718.428898	406.610418	-2253.352036	1710.819388	322.872373	-2222.725871	1697.634093	472.045559	-2305.904929	1541.533001	398.833600	-2474.612570	1235.412450	340.283181	-2189.862645	1420.560303	362.234487	-2216.766902	1562.791726	237.477300	-2365.322678	1457.101534	84.767152	-2347.586706	1412.783262	68.818565	-2406.822807	1410.416999	53.734860	-2445.267972	1338.376655	12.454687	-2485.616672	1321.316791	89.408446	-2380.185603	1067.111512	24.841120	-2417.537613	1073.839123	-42.978364	-2360.892780	984.435548	4.237579	-2195.822366	1464.595816	539.522244	-2297.060081	1248.729046	605.674754	-2259.858012	1221.391536	588.167402	-2300.268707	1179.905899	595.060123	-2300.371891	1108.004443	580.991109	-2369.824113	1110.008451	510.412425	-2073.970801	1121.994968	416.091168	-2054.599883	1051.001855	443.662198	-1991.139526	1120.647822	390.175372	-2393.850973	977.940050	217.054398	-2434.500639	970.087019	448.611368	-2542.316056	1120.178597	315.076485	-2560.946602	1095.592426	283.324747	-2565.945395	1095.614111	340.389765	-2375.047404	787.225409	145.792082	-2295.779837	756.859562	165.260515	-2268.265216	785.337944	193.238423	-2281.932145	699.525938	170.239006	-2210.290108	570.044895	206.229049	-2336.693887	438.186758	259.268159	-2373.244314	436.881199	182.107992	-2367.653923	409.246964	218.569582	-2444.769844	376.761296	235.664381	-2654.669335	361.854846	212.107114	-2537.444007	187.563576	244.920520	-2539.195360	210.513600	144.776017	-2514.070630	186.095845	194.555405	-2603.176145	694.994996	471.946030	-2578.249651	632.446646	475.311218	-2547.453778	623.225913	472.671187	-2620.551309	564.899367	453.725390	-2652.719202	445.275127	436.209989	-2691.986673	320.682295	387.982323	-2794.578343	305.072406	421.961854	-2765.384832	273.222708	403.851344	-2787.782664	233.678071	368.514261	-2945.049309	141.518460	361.314674	-3009.730270	114.596768	309.365801	-2792.478081	63.145953	304.724682	-2796.919907	60.530648	347.364767	-2843.115869	48.824852	398.152380	
871	4.350000	-2058.313597	1721.173439	404.538231	-2225.831048	1713.833149	320.810912	-2195.175981	1700.167087	469.993093	-2277.839578	1543.663364	397.699557	-2445.269625	1236.097624	342.524315	-2161.677280	1424.026771	359.010029	-2190.301423	1566.903413	235.878907	-2341.619067	1464.484850	84.612907	-2324.218824	1420.483740	67.268531	-2383.805249	1418.643491	53.139073	-2423.030784	1347.503154	11.285285	-2462.101809	1329.119813	88.712126	-2358.719542	1075.837904	17.616476	-2397.177893	1083.885678	-49.593909	-2340.656668	993.083133	-3.940171	-2164.595294	1468.370158	535.731237	-2261.156486	1251.425030	604.582166	-2223.950758	1224.559512	586.518445	-2263.741174	1182.572514	594.250027	-2262.910913	1110.631141	580.074285	-2333.621357	1112.501263	510.237591	-2040.927623	1134.328371	410.310163	-2018.352303	1063.966851	436.905034	-1958.770117	1136.410937	382.450501	-2363.318263	982.268188	215.573819	-2403.051688	968.363681	447.037461	-2512.354817	1120.517356	317.249823	-2531.456158	1096.282930	285.294345	-2535.729285	1095.580428	342.510595	-2341.227327	794.202009	146.163970	-2261.429694	765.891729	166.435273	-2234.760444	795.404341	194.062423	-2246.178506	708.938688	171.750319	-2170.413348	581.647344	207.818677	-2289.155039	441.992485	259.762528	-2324.105126	437.664340	182.020667	-2317.407277	410.696540	218.837193	-2392.382323	373.743600	235.263754	-2601.253961	343.726851	208.198905	-2471.913465	179.005011	243.508039	-2473.674932	201.355941	143.251031	-2447.516548	179.035259	193.477452	-2581.503391	697.442206	470.569941	-2559.477539	634.030788	472.880999	-2528.918961	623.548599	469.970892	-2604.981401	568.389393	452.157987	-2642.377997	450.150490	434.842710	-2683.916175	325.851818	387.829646	-2786.406040	311.634392	422.630018	-2757.635394	279.290093	404.581901	-2780.553377	239.543936	369.870697	-2939.375923	148.920474	364.298629	-3004.253985	125.165310	312.147137	-2791.559413	62.323400	305.266976	-2795.746724	59.275610	347.791944	-2842.155186	49.340412	398.748010	
